<svg xmlns="http://www.w3.org/2000/svg" viewBox="0 0 256 256" role="img" aria-labelledby="title desc">
  <title id="title">Abu Amen logo mark</title>
  <desc id="desc">A teal shield with flowing medical curves around a blue pharmacy cross.</desc>
  <defs>
    <linearGradient id="shieldGradient" x1="34" y1="26" x2="214" y2="230" gradientUnits="userSpaceOnUse">
      <stop offset="0" stop-color="#6fd6ca" />
      <stop offset="1" stop-color="#27a59d" />
    </linearGradient>
    <linearGradient id="arcGradient" x1="64" y1="54" x2="190" y2="194" gradientUnits="userSpaceOnUse">
      <stop offset="0" stop-color="#7ce0d0" />
      <stop offset="1" stop-color="#2ca79f" />
    </linearGradient>
    <filter id="softShadow" x="-20%" y="-20%" width="140%" height="140%">
      <feDropShadow dx="0" dy="5" stdDeviation="7" flood-color="#0b4f87" flood-opacity="0.14" />
    </filter>
  </defs>

  <g filter="url(#softShadow)">
    <path
      d="M128 18C151 34 180 44 214 46V105C214 156 184 206 128 238C72 206 42 156 42 105V46C76 44 105 34 128 18Z"
      fill="none"
      stroke="url(#shieldGradient)"
      stroke-linecap="round"
      stroke-linejoin="round"
      stroke-width="14" />

    <path
      d="M82 76C97 58 121 46 148 46"
      fill="none"
      stroke="url(#arcGradient)"
      stroke-linecap="round"
      stroke-width="18" />
    <path
      d="M180 82C198 97 210 121 210 148"
      fill="none"
      stroke="url(#arcGradient)"
      stroke-linecap="round"
      stroke-width="18" />
    <path
      d="M174 180C159 198 135 210 108 210"
      fill="none"
      stroke="url(#arcGradient)"
      stroke-linecap="round"
      stroke-width="18" />
    <path
      d="M76 174C58 159 46 135 46 108"
      fill="none"
      stroke="url(#arcGradient)"
      stroke-linecap="round"
      stroke-width="18" />

    <path
      d="M106 68A66 66 0 0 1 188 106"
      fill="none"
      stroke="#ffffff"
      stroke-linecap="round"
      stroke-width="7" />
    <path
      d="M188 150A66 66 0 0 1 150 188"
      fill="none"
      stroke="#ffffff"
      stroke-linecap="round"
      stroke-width="7" />
    <path
      d="M106 188A66 66 0 0 1 68 150"
      fill="none"
      stroke="#ffffff"
      stroke-linecap="round"
      stroke-width="7" />
    <path
      d="M68 106A66 66 0 0 1 106 68"
      fill="none"
      stroke="#ffffff"
      stroke-linecap="round"
      stroke-width="7" />

    <g>
      <rect x="110" y="62" width="36" height="132" rx="18" fill="#ffffff" stroke="#0b4f87" stroke-width="10" />
      <rect x="62" y="110" width="132" height="36" rx="18" fill="#ffffff" stroke="#0b4f87" stroke-width="10" />
    </g>
  </g>
</svg>
